<?xml version="1.0" encoding="utf-8"?>
<!-- Generator: Adobe Illustrator 21.0.0, SVG Export Plug-In . SVG Version: 6.00 Build 0)  -->
<svg version="1.2" baseProfile="tiny" id="Layer_1" xmlns="http://www.w3.org/2000/svg" xmlns:xlink="http://www.w3.org/1999/xlink"
	 x="0px" y="0px" viewBox="0 0 123 56.6" overflow="scroll" xml:space="preserve">
<g>
	<path fill="#3A3A3A" d="M17.5,34.2l-0.3,2c-0.2,1.5-1.1,2.8-2.5,3.8c-1.4,1.1-3,1.6-4.8,1.6H5.7c-1.8,0-3.2-0.5-4.3-1.6
		c-1.1-1.1-1.5-2.3-1.3-3.8l2.9-19c0.2-1.5,1-2.8,2.5-3.8s3-1.6,4.8-1.6h4.2c1.8,0,3.2,0.5,4.3,1.6c1.1,1.1,1.5,2.3,1.3,3.8L19.2,23
		h-5.6l1.1-6.9c0.3-2.4-0.2-3.5-1.8-3.5h-1.5c-1.5,0-2.4,1.2-2.8,3.5L5.5,37.4c-0.4,2.3,0.2,3.5,1.7,3.5h1.5c1.5,0,2.4-1.2,2.8-3.5
		l0.5-3.2H17.5z"/>
	<path fill="#3A3A3A" d="M36.2,41.6c-0.1-0.3-0.2-0.6-0.3-0.9c-0.3,0.3-0.6,0.5-0.8,0.6c-0.3,0.2-0.7,0.3-1.1,0.3h-3.7
		c-1.8,0-3.2-0.5-4.3-1.6c-1.1-1.1-1.5-2.3-1.3-3.8l0.2-1.5c0.3-1.7,1-3,2.2-3.9c1-0.7,3.2-1.6,6.6-2.6c1.7-0.5,2.8-0.8,3.4-1
		c0.3-0.1,0.5-0.3,0.6-0.5l0.5-3.1c0.4-2.4-0.2-3.5-1.7-3.5h-1.5c-1.5,0-2.4,1.2-2.8,3.5l-0.5,3.2h-5.6l0.3-2
		c0.2-1.5,1.1-2.8,2.5-3.8c1.4-1.1,3-1.6,4.8-1.6h4.2c1.8,0,3.2,0.5,4.3,1.6c1.1,1.1,1.5,2.3,1.3,3.8l-1.2,8l-0.8,5.7
		c-0.1,0.5-0.2,1-0.1,1.5c0.1,0.5,0.2,1.1,0.5,1.7L36.2,41.6z M33.3,40.9c1.5,0,2.4-1.2,2.8-3.5l1.4-9.2c0.1-0.1-1,0.3-3.2,1
		c-1.9,0.6-3,1.2-3.2,1.7C31,30.9,31,31,31,31l-0.9,6.4c-0.4,2.3,0.2,3.5,1.7,3.5H33.3z"/>
	<path fill="#3A3A3A" d="M64.9,19.5c1,0.2,1.9,0.5,2.4,1.1l-0.9,6.2h-5.6l0.5-3.2c0.3-2.3-0.5-3.1-2.4-2.6c-0.6,0.2-1.1,0.4-1.6,0.8
		l-0.6,4.1v0l-2.2,15H58l-0.1,0.8H45l0.1-0.8h3.6L51.9,20h-3.6l0.1-0.8h9.2l-0.2,1.1c1.5-0.7,2.7-1.1,3.6-1.1h0.9
		C62.8,19.3,63.8,19.3,64.9,19.5z"/>
	<path fill="#3A3A3A" d="M78.4,40.9l-0.1,0.8H65.5l0.1-0.8h3.6L72.3,20h-3.6l0.1-0.8H78l-3.2,21.6H78.4z M75,15.5
		c-0.6,0-1.1-0.2-1.4-0.5c-0.4-0.4-0.5-0.8-0.4-1.3l0.2-1.5c0.1-0.5,0.3-0.9,0.8-1.3c0.5-0.4,1-0.5,1.6-0.5h1.5
		c0.6,0,1.1,0.2,1.4,0.5c0.4,0.4,0.5,0.8,0.4,1.3l-0.2,1.5c-0.1,0.5-0.3,0.9-0.8,1.3c-0.5,0.4-1,0.5-1.6,0.5H75z"/>
	<path fill="#3A3A3A" d="M96.6,5c-1.6,0.4-2.5,1.6-2.8,3.7l-1.6,10.6h3.9L95.9,20h-3.9l-1.9,12.9c0,0.3-0.1,0.5-0.1,0.8H90
		l-2.6,17.4c-0.2,1.5-1,2.8-2.5,3.8s-3,1.6-4.8,1.6L0,56h76l2.8,0c1.6-0.4,2.5-1.6,2.8-3.7L85.3,28c0-0.3,0.1-0.5,0.1-0.8h0.1
		l1.1-7.2h-3.5l0.1-0.8h3.5L88,9.8C88.3,8.3,89.1,7,90.5,6c1.4-1.1,3-1.6,4.8-1.6H123L115,5L96.6,5z"/>
	<path fill="#3A3A3A" d="M113,51.1c-0.2,1.5-1.1,2.8-2.5,3.8c-1.4,1.1-3,1.6-4.8,1.6h-4.2c-1.8,0-3.2-0.5-4.3-1.6
		c-1.1-1.1-1.5-2.3-1.3-3.8l0.3-2h5.6l-0.5,3.2c-0.4,2.3,0.2,3.5,1.7,3.5h1.5c1.5,0,2.4-1.2,2.8-3.5l1.6-10.6h-5.1
		c-1.8,0-3.2-0.5-4.3-1.6c-1.1-1.1-1.5-2.3-1.3-3.8l1.1-7.4l1.3-8.9h-3.6l0.1-0.7h9.2l-0.1,0.7l-2.6,17.4c-0.3,2.3,0.2,3.5,1.8,3.5
		h1.5c1.4,0,2.3-1,2.7-3c0-0.1,0-0.2,0-0.3h0c0-0.2,0.1-0.3,0.1-0.3l2.6-17.4h-3.6l0.1-0.7h9.2L113,51.1z"/>
</g>
<line fill="none" x1="56" y1="-51" x2="63" y2="-57"/>
<g>
	<g>
		<path fill="#3A3A3A" d="M29.5,54.9c-4.4-0.1-8.9-0.2-13.3-0.4c0.3-1.2,0-2.2-1-3c-0.6-0.5-1.2-0.7-2-0.6c-1.7,0.2-2.9,1.8-2.4,3.5
			c-0.1,0-0.2,0-0.3-0.1c-0.2-0.1-0.4-0.1-0.7-0.2c-0.3-0.1-0.5-0.2-0.7-0.5c-0.3-0.3-0.6-0.7-0.8-1.1C8.1,52.4,8,52,8,51.5
			c0-0.2,0-0.4,0.1-0.5c0.1-0.2,0.2-0.3,0.3-0.5c0.1-0.2,0.2-0.4,0.2-0.6c0-0.1-0.1-0.3-0.1-0.4c0,0,0,0,0,0
			c0.4,0.2,0.9,0.2,1.4,0.2c0.5,0,1-0.1,1.5-0.1c0.9-0.1,1.8-0.1,2.7,0c0,0,0.1,0,0.1,0c-1.4-0.2-2.8-0.1-4.2-0.1c0,0,0,0,0,0
			c0.1,0,0.2-0.1,0.4-0.1c1.5-0.5,3.1-0.8,4.7-1.2c0.7-0.2,1.5-0.3,2.2-0.5c0.5-0.1,1-0.1,1.4-0.2c0.7-0.1,1.5-0.1,2.2-0.1
			c0.7,0,1.3,0.1,1.9,0.1c0.9,0.1,1.8,0.4,2.7,0.8c0.9,0.4,1.8,0.8,2.8,1.3c0.1,0.1,0.2,0.1,0.3,0.1c0.8,0.1,1.5,0.2,2.3,0.3
			c0.7,0.1,1.5,0.2,2.2,0.3c0.7,0.1,1.4,0.3,2,0.5c0.7,0.2,1.4,0.5,2.1,0.9c0.2,0.1,0.2,0.2,0.2,0.4c0,0.1,0,0.2,0,0.3
			c0,0.1,0,0.2-0.1,0.4c0,0.1,0,0.1,0.1,0.2c0,0,0.1,0,0,0.1c0,0.2-0.1,0.4-0.1,0.6c0,0.1,0,0.1-0.1,0.1c-0.1,0-0.1,0-0.1,0.1
			c-0.1,0.3-0.2,0.6-0.2,0.9c0,0.1,0,0.1-0.1,0.1c-0.6,0-1.2,0.1-1.7,0.1c-0.1,0-0.3,0-0.4,0c0,0,0-0.1,0-0.1
			c0.6-1.5-0.2-3.3-1.8-3.8c-1.6-0.5-3.4,0.5-3.7,2.2c-0.1,0.5-0.1,1,0.1,1.5C29.5,54.8,29.5,54.8,29.5,54.9z M27.8,49.9
			C27.8,49.9,27.8,49.9,27.8,49.9c-0.1,0-0.1-0.1-0.2-0.1c-1.4-0.9-2.9-1.5-4.6-1.8c-0.6-0.1-1.3-0.2-1.9-0.2c-0.5,0-1,0-1.5,0
			c-0.6,0-1.2,0.1-1.8,0.2c-0.5,0.1-1,0.2-1.5,0.2c-0.3,0-0.5,0.1-0.8,0.2c0,0,0,0,0,0c0.8-0.1,1.6-0.3,2.4-0.3
			c0.6,0,1.1-0.1,1.7-0.1c0.9,0,1.8,0,2.6,0.2c1,0.2,2,0.5,2.9,0.8c0.7,0.3,1.3,0.6,1.9,1c0,0,0.1,0,0.1,0
			C27.4,49.9,27.6,49.9,27.8,49.9z M28.9,54.5c0-0.1,0-0.2-0.1-0.3c0,0,0,0-0.1,0c-0.4-0.1-0.8-0.2-1.2-0.2
			c-0.7-0.1-1.4-0.1-2.1-0.1c-1.2,0-2.3,0.1-3.4,0.2c-0.9,0.1-1.7,0.1-2.6,0.2c-0.6,0-1.2,0-1.7,0c-0.1,0-0.2,0-0.3,0c0,0,0,0,0,0
			c0.2,0,0.5,0.1,0.7,0.1c0.8,0.1,1.5,0.1,2.3,0c1,0,2-0.1,3-0.1c1.1,0,2.1-0.1,3.2,0c0.6,0,1.1,0.1,1.7,0.2
			C28.4,54.3,28.7,54.4,28.9,54.5z M25.9,50C25.9,50,25.9,50,25.9,50C25.8,50,25.8,50,25.9,50c-0.8,0-1.5-0.1-2.3-0.1
			c-1.3,0-2.5-0.1-3.8-0.1c-0.8-0.1-1.5-0.1-2.3-0.3c-0.4-0.1-0.8-0.2-1.1-0.3c-0.2-0.1-0.4-0.2-0.5-0.4c-0.1-0.1-0.1-0.3-0.2-0.4
			c-0.2,0.2-0.2,0.4,0,0.6c0.1,0.1,0.2,0.2,0.3,0.3c0.3,0.2,0.6,0.3,0.9,0.3c0.7,0.2,1.4,0.2,2,0.3c0.7,0,1.4,0.1,2.1,0.1
			c1.3,0,2.5,0,3.8,0C25.1,50,25.5,50,25.9,50z M37.2,52.2c0-0.1,0-0.2,0-0.3c0,0,0,0,0-0.1c-0.3-0.2-0.6-0.3-0.8-0.4
			c-0.5-0.2-1.1-0.4-1.6-0.6c-1.1-0.3-2.1-0.4-3.2-0.5c-0.7-0.1-1.4-0.1-2.1-0.1c-0.2,0-0.4,0-0.7,0c0.5,0,1,0.1,1.6,0.1
			c0.7,0,1.3,0.1,2,0.2c0.8,0.1,1.6,0.3,2.4,0.5c0.7,0.2,1.3,0.4,1.9,0.8C36.8,52,37,52.1,37.2,52.2z"/>
		<path fill="#3A3A3A" d="M34.7,53.8c0,1.4-1.2,2.6-2.6,2.6c-1.4,0-2.6-1.2-2.6-2.6c0-1.4,1.2-2.6,2.6-2.6
			C33.6,51.2,34.7,52.3,34.7,53.8z M33.9,54.1C33.9,54.1,33.9,54.1,33.9,54.1C33.9,54.1,33.9,54.1,33.9,54.1c0-0.2,0.1-0.4,0-0.6
			c-0.1-0.7-0.7-1.3-1.4-1.5c-0.7-0.1-1.5,0.2-1.9,0.8c-0.2,0.4-0.3,0.7-0.3,1.2c0,0,0,0,0,0.1c0,0,0,0,0,0c0-0.5,0.1-0.9,0.5-1.3
			c0.3-0.4,0.8-0.6,1.3-0.6c0.4,0,0.8,0.1,1.2,0.4C33.7,53,33.9,53.5,33.9,54.1z"/>
		<path fill="#3A3A3A" d="M16,53.8c0,1.4-1.1,2.5-2.5,2.5c-1.4,0-2.6-1.1-2.6-2.5c0-1.4,1.1-2.5,2.5-2.5C14.9,51.2,16,52.4,16,53.8z
			 M11.7,53.9c0,0,0,0.1,0,0.1c0,0,0,0,0,0c0,0,0,0,0-0.1C11.8,53.9,11.8,53.8,11.7,53.9c0.2-1.2,1.3-1.9,2.4-1.5
			c0.7,0.2,1.1,0.9,1.2,1.6c0,0,0,0,0,0.1c0,0,0,0,0-0.1c0-0.1,0-0.3,0-0.4c-0.1-0.9-1-1.6-2-1.5C12.4,52.2,11.7,52.9,11.7,53.9z"/>
		<path fill="#3A3A3A" d="M27.8,49.9c-0.2,0-0.4,0-0.6,0c0,0-0.1,0-0.1,0c-0.6-0.4-1.2-0.7-1.9-1c-0.9-0.4-1.9-0.7-2.9-0.8
			c-0.9-0.1-1.7-0.2-2.6-0.2c-0.6,0-1.1,0.1-1.7,0.1c-0.8,0.1-1.6,0.2-2.4,0.3c0,0,0,0,0,0c0.3-0.1,0.5-0.1,0.8-0.2
			c0.5-0.1,1-0.2,1.5-0.2c0.6-0.1,1.2-0.1,1.8-0.2c0.5,0,1,0,1.5,0c0.7,0,1.3,0.1,1.9,0.2c1.6,0.3,3.1,1,4.6,1.8
			C27.7,49.8,27.8,49.9,27.8,49.9C27.8,49.9,27.8,49.9,27.8,49.9z"/>
		<path fill="#3A3A3A" d="M28.9,54.5c-0.3-0.1-0.5-0.1-0.8-0.2c-0.6-0.1-1.1-0.2-1.7-0.2c-1.1-0.1-2.1-0.1-3.2,0c-1,0-2,0.1-3,0.1
			c-0.8,0-1.5,0-2.3,0c-0.2,0-0.5-0.1-0.7-0.1c0,0,0,0,0,0c0.1,0,0.2,0,0.3,0c0.6,0.1,1.2,0.1,1.7,0c0.9,0,1.7-0.1,2.6-0.2
			c1.1-0.1,2.3-0.2,3.4-0.2c0.7,0,1.4,0,2.1,0.1c0.4,0.1,0.8,0.1,1.2,0.2c0,0,0.1,0,0.1,0C28.9,54.3,28.9,54.4,28.9,54.5z"/>
		<path fill="#3A3A3A" d="M25.9,50c-0.4,0-0.8,0-1.1,0c-1.3,0-2.5,0-3.8,0c-0.7,0-1.4,0-2.1-0.1c-0.7,0-1.4-0.1-2-0.3
			c-0.3-0.1-0.6-0.2-0.9-0.3c-0.1-0.1-0.2-0.2-0.3-0.3c-0.2-0.2-0.1-0.4,0-0.6c0.1,0.1,0.1,0.3,0.2,0.4c0.1,0.2,0.3,0.3,0.5,0.4
			c0.4,0.1,0.8,0.2,1.1,0.3c0.8,0.1,1.5,0.2,2.3,0.3c1.3,0.1,2.5,0.1,3.8,0.1C24.3,49.9,25.1,50,25.9,50C25.8,50,25.8,50,25.9,50
			C25.9,50,25.9,50,25.9,50z"/>
		<path fill="#3A3A3A" d="M37.2,52.2c-0.2-0.1-0.4-0.2-0.5-0.3c-0.6-0.3-1.3-0.6-1.9-0.8c-0.8-0.2-1.6-0.4-2.4-0.5
			c-0.7-0.1-1.3-0.2-2-0.2c-0.5,0-1-0.1-1.6-0.1c0.2,0,0.4,0,0.7,0c0.7,0,1.4,0,2.1,0.1c1.1,0.1,2.2,0.2,3.2,0.5
			c0.6,0.1,1.1,0.3,1.6,0.6c0.3,0.1,0.6,0.3,0.8,0.4c0,0,0,0,0,0.1C37.2,52,37.2,52.1,37.2,52.2z"/>
		<path fill="#3A3A3A" d="M33.9,54.1c0-0.6-0.2-1.1-0.6-1.5c-0.3-0.3-0.7-0.4-1.2-0.4c-0.5,0-0.9,0.2-1.3,0.6
			c-0.3,0.4-0.5,0.8-0.5,1.3c0,0,0,0,0,0c0,0,0,0,0-0.1c0-0.4,0-0.8,0.3-1.2c0.4-0.6,1.2-1,1.9-0.8c0.7,0.1,1.3,0.7,1.4,1.5
			C34,53.7,33.9,53.9,33.9,54.1C33.9,54.1,33.9,54.1,33.9,54.1C33.9,54.1,33.9,54.1,33.9,54.1z"/>
		<path fill="#3A3A3A" d="M11.7,53.9c0-0.9,0.7-1.7,1.6-1.8c1-0.1,1.8,0.6,2,1.5c0,0.1,0,0.3,0,0.4c0,0,0,0,0,0.1c0,0,0,0,0-0.1
			c0-0.7-0.5-1.4-1.2-1.6C13,52,11.9,52.7,11.7,53.9c0.1,0,0.1,0.1,0.1,0.1c0,0,0,0,0,0.1c0,0,0,0,0,0
			C11.7,53.9,11.7,53.9,11.7,53.9z"/>
	</g>
</g>
</svg>
